<svg width="25" height="24" viewBox="0 0 25 24" fill="none" xmlns="http://www.w3.org/2000/svg">
<g clip-path="url(#clip0_4580_851)">
<path d="M6.04664 14.4182L5.23971 17.4306L2.29041 17.493C1.40901 15.8582 0.909058 13.9878 0.909058 12.0001C0.909058 10.078 1.3765 8.26551 2.20507 6.66954H2.2057L4.8314 7.15092L5.98162 9.76087C5.74088 10.4627 5.60967 11.2161 5.60967 12.0001C5.60976 12.8509 5.76388 13.6661 6.04664 14.4182Z" fill="#FBBB00"/>
<path d="M23.8883 9.83444C24.0214 10.5356 24.0908 11.2597 24.0908 11.9998C24.0908 12.8296 24.0035 13.6391 23.8373 14.4199C23.2731 17.0769 21.7987 19.3969 19.7563 21.0388L19.7557 21.0381L16.4485 20.8694L15.9804 17.9474C17.3356 17.1527 18.3948 15.9088 18.9527 14.4199H12.7547V9.83444H19.0431H23.8883Z" fill="#518EF8"/>
<path d="M19.7553 21.0384L19.7559 21.0391C17.7695 22.6357 15.2462 23.591 12.4995 23.591C8.08537 23.591 4.24765 21.1238 2.28992 17.493L6.04614 14.4182C7.02499 17.0306 9.54506 18.8903 12.4995 18.8903C13.7694 18.8903 14.9591 18.547 15.9799 17.9477L19.7553 21.0384Z" fill="#28B446"/>
<path d="M19.8983 3.07753L16.1433 6.15166C15.0868 5.49125 13.8379 5.10975 12.4999 5.10975C9.47857 5.10975 6.91136 7.05471 5.98155 9.76078L2.20559 6.66945H2.20496C4.13403 2.95017 8.02015 0.409088 12.4999 0.409088C15.3122 0.409088 17.8909 1.41089 19.8983 3.07753Z" fill="#F14336"/>
</g>
<defs>
<clipPath id="clip0_4580_851">
<rect width="23.1818" height="23.1818" fill="white" transform="translate(0.909058 0.409088)"/>
</clipPath>
</defs>
</svg>
