<svg width="85" height="78" viewBox="0 0 85 78" fill="none" xmlns="http://www.w3.org/2000/svg">
<circle cx="36" cy="36" r="36" fill="#F9FAFB"/>
<circle cx="1" cy="65" r="1" fill="#AB92F0"/>
<circle cx="71.5" cy="5.5" r="1.5" fill="#FDE047"/>
<circle cx="72.5" cy="7.5" r="1.4" stroke="#111827" stroke-width="0.2"/>
<circle cx="1" cy="6" r="1" fill="#E5E7EB"/>
<g opacity="0.8">
<path opacity="0.8" d="M40 36C40.9193 36 41.8295 35.8189 42.6788 35.4672C43.5281 35.1154 44.2997 34.5998 44.9497 33.9497C45.5998 33.2997 46.1154 32.5281 46.4672 31.6788C46.8189 30.8295 47 29.9193 47 29C47 28.0807 46.8189 27.1705 46.4672 26.3212C46.1154 25.4719 45.5998 24.7003 44.9497 24.0503C44.2997 23.4002 43.5281 22.8846 42.6788 22.5328C41.8295 22.1811 40.9193 22 40 22C38.1435 22 36.363 22.7375 35.0503 24.0503C33.7375 25.363 33 27.1435 33 29C33 30.8565 33.7375 32.637 35.0503 33.9497C36.363 35.2625 38.1435 36 40 36Z" fill="#97EDFF"/>
<path opacity="0.8" fill-rule="evenodd" clip-rule="evenodd" d="M53 49.376C53 42.196 47.18 37 40 37C32.82 37 27 42.196 27 49.376L27.004 53C27.004 53.5304 27.2147 54.0391 27.5898 54.4142C27.9649 54.7893 28.4736 55 29.004 55H51C51.5304 55 52.0391 54.7893 52.4142 54.4142C52.7893 54.0391 53 53.5304 53 53V49.374V49.376Z" fill="#97EDFF"/>
</g>
<path fill-rule="evenodd" clip-rule="evenodd" d="M31 28C31 26.6739 31.5268 25.4021 32.4645 24.4645C33.4021 23.5268 34.6739 23 36 23C37.3261 23 38.5979 23.5268 39.5355 24.4645C40.4732 25.4021 41 26.6739 41 28C41 29.3261 40.4732 30.5979 39.5355 31.5355C38.5979 32.4732 37.3261 33 36 33C34.6739 33 33.4021 32.4732 32.4645 31.5355C31.5268 30.5979 31 29.3261 31 28ZM36 21C35.0807 21 34.1705 21.1811 33.3212 21.5328C32.4719 21.8846 31.7003 22.4002 31.0503 23.0503C30.4002 23.7003 29.8846 24.4719 29.5328 25.3212C29.1811 26.1705 29 27.0807 29 28C29 28.9193 29.1811 29.8295 29.5328 30.6788C29.8846 31.5281 30.4002 32.2997 31.0503 32.9497C31.7003 33.5998 32.4719 34.1154 33.3212 34.4672C34.1705 34.8189 35.0807 35 36 35C37.8565 35 39.637 34.2625 40.9497 32.9497C42.2625 31.637 43 29.8565 43 28C43 26.1435 42.2625 24.363 40.9497 23.0503C39.637 21.7375 37.8565 21 36 21ZM36.032 35C29.022 35 23 40.16 23 47L23.004 52C23.004 52.2652 23.1094 52.5196 23.2969 52.7071C23.4844 52.8946 23.7388 53 24.004 53C24.2692 53 24.5236 52.8946 24.7111 52.7071C24.8986 52.5196 25.004 52.2652 25.004 52L25 47C25 41.45 29.928 37 36.032 37C42.13 37 47 41.444 47 47V52C47 52.2652 47.1054 52.5196 47.2929 52.7071C47.4804 52.8946 47.7348 53 48 53C48.2652 53 48.5196 52.8946 48.7071 52.7071C48.8946 52.5196 49 52.2652 49 52V47C49 40.166 43.05 35 36.032 35Z" fill="#0A6375"/>
<path fill-rule="evenodd" clip-rule="evenodd" d="M66.812 67.0477C67.3728 69.5098 67.3059 71.8735 67.3469 74.3646C67.3549 74.8511 66.9767 75.2509 66.5027 75.2599C66.0284 75.2689 65.6373 74.8804 65.6291 74.3939C65.5903 72.0318 65.6712 69.7855 65.139 67.4468C65.0313 66.9738 65.319 66.4996 65.7807 66.3908C66.2422 66.2791 66.7045 66.5747 66.812 67.0477Z" fill="#FFF1EE"/>
<path fill-rule="evenodd" clip-rule="evenodd" d="M71.8819 62.3498C75.8402 66.1417 79.5544 71.003 82.1326 75.8976C82.3574 76.3252 82.2013 76.8595 81.7839 77.089C81.3666 77.3184 80.845 77.1598 80.6202 76.7322C78.1271 71.9998 74.535 67.2981 70.7075 63.6338C70.3615 63.3015 70.3438 62.7446 70.6679 62.391C70.9919 62.0374 71.5359 62.0176 71.8819 62.3498Z" fill="#FFF1EE"/>
<path fill-rule="evenodd" clip-rule="evenodd" d="M72.9447 58.2722C76.6132 57.6977 80.3743 58.7974 83.6855 60.3283C84.1175 60.5297 84.3094 61.0506 84.1143 61.4907C83.9189 61.9338 83.4095 62.1299 82.9775 61.9314C79.9618 60.5358 76.5449 59.4871 73.2037 60.0098C72.7349 60.0833 72.2965 59.7529 72.2252 59.2744C72.1536 58.796 72.4762 58.3457 72.9447 58.2722Z" fill="#FFF1EE"/>
<path fill-rule="evenodd" clip-rule="evenodd" d="M65.812 64.0477C66.3728 66.5098 66.3059 68.8735 66.3469 71.3646C66.3549 71.8511 65.9767 72.2509 65.5027 72.2599C65.0284 72.2689 64.6373 71.8804 64.6291 71.3939C64.5903 69.0318 64.6712 66.7855 64.139 64.4468C64.0313 63.9738 64.319 63.4996 64.7807 63.3908C65.2422 63.2791 65.7045 63.5747 65.812 64.0477Z" fill="#FFB9AA"/>
<path fill-rule="evenodd" clip-rule="evenodd" d="M70.8819 59.3498C74.8402 63.1417 78.5544 68.003 81.1326 72.8976C81.3574 73.3252 81.2013 73.8595 80.7839 74.089C80.3666 74.3184 79.845 74.1598 79.6202 73.7322C77.1271 68.9998 73.535 64.2981 69.7075 60.6338C69.3615 60.3015 69.3438 59.7446 69.6679 59.391C69.9919 59.0374 70.5359 59.0176 70.8819 59.3498Z" fill="#FFB9AA"/>
<path fill-rule="evenodd" clip-rule="evenodd" d="M71.9447 55.2722C75.6132 54.6977 79.3743 55.7974 82.6855 57.3283C83.1175 57.5297 83.3094 58.0506 83.1143 58.4907C82.9189 58.9338 82.4095 59.1299 81.9775 58.9314C78.9618 57.5358 75.5449 56.4871 72.2037 57.0098C71.7349 57.0833 71.2965 56.7529 71.2252 56.2744C71.1536 55.796 71.4762 55.3457 71.9447 55.2722Z" fill="#FFB9AA"/>
</svg>
