<svg width="332" height="290" viewBox="0 0 332 290" fill="none" xmlns="http://www.w3.org/2000/svg">
<g filter="url(#filter0_d_1_1241)">
<rect x="43.4185" y="18.4936" width="48.1544" height="48.1544" rx="24.0772" transform="rotate(-6.0288 43.4185 18.4936)" fill="white"/>
</g>
<path d="M59.1829 34.0342C59.1596 33.8137 59.2249 33.593 59.3643 33.4206C59.5038 33.2482 59.706 33.1383 59.9265 33.115C62.8785 32.8032 65.6447 31.4541 68.2393 29.0426C68.3718 28.9194 68.5407 28.8426 68.7206 28.8236C68.9005 28.8046 69.0817 28.8445 69.237 28.9372C72.2781 30.7535 75.2651 31.4951 78.2171 31.1833C78.4376 31.16 78.6583 31.2253 78.8307 31.3647C79.0031 31.5042 79.113 31.7064 79.1363 31.9269L79.7509 37.7466C79.7721 37.9473 79.7886 38.1461 79.8007 38.3455C79.2021 37.856 78.4715 37.5553 77.7016 37.4819C76.9318 37.4084 76.1575 37.5653 75.4771 37.9328C74.7966 38.3003 74.2407 38.8617 73.88 39.5457C73.5193 40.2297 73.3699 41.0056 73.451 41.7746L73.4569 41.83C72.8444 42.0239 72.3177 42.4235 71.966 42.961C71.6143 43.4986 71.4591 44.1412 71.5267 44.7801L72.112 50.3227C72.1179 50.3781 72.1246 50.4312 72.1336 50.484C71.8819 50.6272 71.6254 50.7664 71.3597 50.9043C71.1722 51.0018 70.9548 51.0248 70.7511 50.9685C64.0923 49.1252 60.3829 45.3965 59.7976 39.8539L59.1829 34.0342ZM74.6766 42.7661L74.5595 41.6575C74.4819 40.9225 74.6994 40.1868 75.1643 39.6122C75.6291 39.0376 76.3032 38.6712 77.0382 38.5936C77.7731 38.5159 78.5089 38.7335 79.0835 39.1983C79.6581 39.6631 80.0245 40.3372 80.1021 41.0722L80.2192 42.1807L80.7735 42.1222C81.2145 42.0756 81.6559 42.2061 82.0007 42.485C82.3454 42.7639 82.5653 43.1683 82.6119 43.6093L83.1972 49.1519C83.2438 49.5929 83.1133 50.0344 82.8344 50.3791C82.5555 50.7239 82.1511 50.9437 81.7101 50.9903L75.0589 51.6928C74.6179 51.7393 74.1765 51.6088 73.8317 51.3299C73.487 51.051 73.2671 50.6466 73.2206 50.2056L72.6352 44.663C72.5886 44.222 72.7191 43.7806 72.998 43.4358C73.2769 43.091 73.6814 42.8712 74.1224 42.8246L74.6766 42.7661ZM76.2223 41.4819L76.3394 42.5905L78.5564 42.3563L78.4394 41.2478C78.4083 40.9538 78.2617 40.6842 78.0319 40.4982C77.8021 40.3123 77.5078 40.2253 77.2138 40.2563C76.9198 40.2874 76.6501 40.434 76.4642 40.6638C76.2783 40.8936 76.1913 41.1879 76.2223 41.4819ZM79.0247 46.7904C78.9937 46.4964 78.8471 46.2268 78.6173 46.0408C78.3874 45.8549 78.0931 45.7679 77.7991 45.7989C77.5051 45.83 77.2355 45.9766 77.0496 46.2064C76.8636 46.4362 76.7766 46.7305 76.8077 47.0245C76.8387 47.3185 76.9853 47.5882 77.2151 47.7741C77.445 47.96 77.7393 48.047 78.0333 48.016C78.3273 47.9849 78.5969 47.8384 78.7828 47.6085C78.9688 47.3787 79.0558 47.0844 79.0247 46.7904Z" fill="#4ADE80"/>
<g filter="url(#filter1_d_1_1241)">
<rect x="30" y="204" width="142" height="51" rx="8" fill="white"/>
</g>
<path d="M41.5859 226H44.2764C46.3906 226 47.6357 224.687 47.6357 222.45V222.44C47.6357 220.209 46.3857 218.954 44.2764 218.954H41.5859V226ZM43.0605 224.779V220.17H44.1006C45.3945 220.17 46.1318 220.976 46.1318 222.445V222.455C46.1318 223.979 45.4189 224.779 44.1006 224.779H43.0605ZM49.508 220.092C49.9377 220.092 50.2697 219.755 50.2697 219.35C50.2697 218.944 49.9377 218.607 49.508 218.607C49.0783 218.607 48.7463 218.944 48.7463 219.35C48.7463 219.755 49.0783 220.092 49.508 220.092ZM48.7951 226H50.2209V220.766H48.7951V226ZM51.4779 226H52.9037V223.07C52.9037 222.309 53.3139 221.889 54.017 221.889C54.2221 221.889 54.4174 221.918 54.5346 221.967V220.712C54.4271 220.683 54.2807 220.658 54.1244 220.658C53.5141 220.658 53.0893 221.034 52.933 221.679H52.9037V220.766H51.4779V226ZM57.6275 226.107C59.1217 226.107 59.8443 225.224 60.0055 224.452L60.0201 224.398H58.7115L58.7018 224.428C58.5992 224.721 58.2428 225.043 57.6568 225.043C56.9293 225.043 56.4752 224.555 56.4605 223.72H60.0641V223.28C60.0641 221.698 59.1021 220.658 57.5689 220.658C56.0357 220.658 55.0543 221.723 55.0543 223.388V223.393C55.0543 225.067 56.026 226.107 57.6275 226.107ZM57.5934 221.723C58.1842 221.723 58.609 222.099 58.6969 222.821H56.4752C56.568 222.113 57.0074 221.723 57.5934 221.723ZM63.4939 226.107C64.8904 226.107 65.7938 225.238 65.8621 224.096V224.066H64.534L64.5291 224.11C64.4314 224.638 64.075 224.989 63.5037 224.989C62.8006 224.989 62.3611 224.408 62.3611 223.383V223.378C62.3611 222.377 62.8006 221.776 63.4988 221.776C64.0896 221.776 64.4363 222.157 64.5242 222.655L64.534 222.699H65.8572V222.665C65.8035 221.532 64.9002 220.658 63.4793 220.658C61.9119 220.658 60.9109 221.698 60.9109 223.373V223.378C60.9109 225.067 61.8973 226.107 63.4939 226.107ZM68.9307 226.107C69.2285 226.107 69.458 226.078 69.6191 226.054V225.009C69.5312 225.019 69.4385 225.033 69.3115 225.033C68.8818 225.033 68.6621 224.867 68.6621 224.379V221.84H69.6191V220.766H68.6621V219.486H67.2217V220.766H66.4941V221.84H67.2217V224.535C67.2217 225.658 67.7686 226.107 68.9307 226.107ZM73.1098 226H75.8002C77.9145 226 79.1596 224.687 79.1596 222.45V222.44C79.1596 220.209 77.9096 218.954 75.8002 218.954H73.1098V226ZM74.5844 224.779V220.17H75.6244C76.9184 220.17 77.6557 220.976 77.6557 222.445V222.455C77.6557 223.979 76.9428 224.779 75.6244 224.779H74.5844ZM82.6725 226.107C84.1666 226.107 84.8893 225.224 85.0504 224.452L85.065 224.398H83.7564L83.7467 224.428C83.6441 224.721 83.2877 225.043 82.7018 225.043C81.9742 225.043 81.5201 224.555 81.5055 223.72H85.109V223.28C85.109 221.698 84.1471 220.658 82.6139 220.658C81.0807 220.658 80.0992 221.723 80.0992 223.388V223.393C80.0992 225.067 81.0709 226.107 82.6725 226.107ZM82.6383 221.723C83.2291 221.723 83.6539 222.099 83.7418 222.821H81.5201C81.6129 222.113 82.0523 221.723 82.6383 221.723ZM86.1463 227.709H87.5721V225.106H87.6014C87.8846 225.727 88.4754 226.107 89.2225 226.107C90.5311 226.107 91.3416 225.082 91.3416 223.383V223.378C91.3416 221.674 90.5311 220.658 89.2029 220.658C88.4607 220.658 87.8895 221.044 87.6063 221.679H87.5721V220.766H86.1463V227.709ZM88.7342 224.926C88.0408 224.926 87.5672 224.33 87.5672 223.388V223.383C87.5672 222.436 88.0408 221.84 88.7342 221.84C89.4422 221.84 89.8914 222.421 89.8914 223.378V223.383C89.8914 224.335 89.4422 224.926 88.7342 224.926ZM94.7861 226.107C96.3682 226.107 97.3789 225.092 97.3789 223.383V223.373C97.3789 221.679 96.3486 220.658 94.7812 220.658C93.2188 220.658 92.1934 221.688 92.1934 223.373V223.383C92.1934 225.087 93.1943 226.107 94.7861 226.107ZM94.791 224.989C94.0879 224.989 93.6436 224.408 93.6436 223.383V223.373C93.6436 222.362 94.0928 221.776 94.7812 221.776C95.4746 221.776 95.9287 222.362 95.9287 223.373V223.383C95.9287 224.403 95.4844 224.989 94.791 224.989ZM100.57 226.107C101.917 226.107 102.86 225.434 102.86 224.408V224.403C102.86 223.632 102.41 223.202 101.317 222.973L100.428 222.782C99.9006 222.67 99.7199 222.494 99.7199 222.226V222.221C99.7199 221.884 100.028 221.664 100.521 221.664C101.048 221.664 101.356 221.947 101.404 222.323L101.409 222.362H102.723V222.313C102.689 221.396 101.912 220.658 100.521 220.658C99.1877 220.658 98.3283 221.303 98.3283 222.299V222.304C98.3283 223.085 98.841 223.593 99.8566 223.808L100.745 223.993C101.258 224.105 101.434 224.267 101.434 224.545V224.55C101.434 224.887 101.107 225.097 100.57 225.097C99.9982 225.097 99.6906 224.857 99.5979 224.447L99.5881 224.403H98.1965L98.2014 224.447C98.3137 225.438 99.1193 226.107 100.57 226.107ZM104.605 220.092C105.035 220.092 105.367 219.755 105.367 219.35C105.367 218.944 105.035 218.607 104.605 218.607C104.175 218.607 103.843 218.944 103.843 219.35C103.843 219.755 104.175 220.092 104.605 220.092ZM103.892 226H105.318V220.766H103.892V226ZM108.655 226.107C108.953 226.107 109.182 226.078 109.343 226.054V225.009C109.255 225.019 109.163 225.033 109.036 225.033C108.606 225.033 108.386 224.867 108.386 224.379V221.84H109.343V220.766H108.386V219.486H106.946V220.766H106.218V221.84H106.946V224.535C106.946 225.658 107.493 226.107 108.655 226.107Z" fill="#111827"/>
<path d="M43.3906 241.094C44.6797 241.094 45.4727 240.461 45.4727 239.461V239.457C45.4727 238.598 44.9883 238.129 43.832 237.875L43.207 237.738C42.4727 237.578 42.1328 237.289 42.1328 236.828V236.824C42.1328 236.281 42.625 235.922 43.3789 235.918C44.0938 235.918 44.5742 236.258 44.6602 236.832L44.668 236.887H45.3711L45.3672 236.828C45.3047 235.906 44.5 235.27 43.3984 235.27C42.2383 235.27 41.418 235.918 41.4141 236.844V236.848C41.4141 237.672 41.9297 238.168 43.0312 238.41L43.6562 238.547C44.4297 238.719 44.7539 238.996 44.7539 239.492V239.496C44.7539 240.078 44.2422 240.445 43.4297 240.445C42.6133 240.445 42.0664 240.098 41.9844 239.531L41.9766 239.477H41.2734L41.2773 239.531C41.3477 240.496 42.1719 241.094 43.3906 241.094ZM47.8781 241.078C48.4953 241.078 48.9094 240.801 49.1281 240.422H49.1438V241H49.8234V236.938H49.1438V239.328C49.1438 240.02 48.7258 240.477 48.0852 240.477C47.4602 240.477 47.1516 240.113 47.1516 239.453V236.938H46.4719V239.574C46.4719 240.5 46.9875 241.078 47.8781 241.078ZM52.7289 242.445C53.8305 242.445 54.5219 241.828 54.5219 240.887V236.938H53.8422V237.625H53.8266C53.5766 237.172 53.1234 236.859 52.5492 236.859C51.518 236.859 50.8109 237.68 50.8109 238.941V238.945C50.8109 240.215 51.5102 241.039 52.5336 241.039C53.1156 241.039 53.5844 240.75 53.8266 240.301H53.8422V240.82C53.8422 241.449 53.4359 241.844 52.7211 241.844C52.1664 241.844 51.7797 241.664 51.6508 241.371L51.6352 241.336H50.9516L50.9594 241.371C51.0922 241.973 51.725 242.445 52.7289 242.445ZM52.682 240.438C51.9594 240.438 51.5063 239.867 51.5063 238.945V238.941C51.5063 238.039 51.9594 237.461 52.682 237.461C53.3695 237.461 53.8422 238.047 53.8422 238.941V238.945C53.8422 239.848 53.3734 240.438 52.682 240.438ZM57.3727 241.078C58.2594 241.078 58.9234 240.547 59.0562 239.875L59.0641 239.836H58.3961L58.3844 239.871C58.2672 240.219 57.9039 240.477 57.3883 240.477C56.6656 240.477 56.2047 239.988 56.1891 239.152H59.1148V238.902C59.1148 237.684 58.4391 236.859 57.3297 236.859C56.2203 236.859 55.5016 237.723 55.5016 238.98V238.984C55.5016 240.262 56.2047 241.078 57.3727 241.078ZM57.3258 237.461C57.9195 237.461 58.357 237.832 58.4234 238.621H56.2008C56.275 237.863 56.7359 237.461 57.3258 237.461ZM61.5438 241.078C62.45 241.078 63.1219 240.578 63.1219 239.867V239.863C63.1219 239.285 62.825 238.961 62.0047 238.762L61.3602 238.605C60.9109 238.496 60.7273 238.305 60.7273 238.027V238.023C60.7273 237.664 61.032 237.426 61.5242 237.426C62.0281 237.426 62.3289 237.688 62.3836 238.082L62.3875 238.109H63.0359L63.032 238.059C62.9813 237.379 62.4148 236.859 61.5242 236.859C60.6453 236.859 60.032 237.355 60.032 238.055V238.059C60.032 238.645 60.4031 239 61.1688 239.184L61.8133 239.34C62.2742 239.453 62.4266 239.617 62.4266 239.91V239.914C62.4266 240.281 62.0984 240.512 61.5477 240.512C60.993 240.512 60.6922 240.273 60.6102 239.867L60.6023 239.828H59.9227L59.9266 239.863C60.0086 240.59 60.5867 241.078 61.5438 241.078ZM65.4492 241.078C65.582 241.078 65.7266 241.062 65.8125 241.051V240.5C65.7539 240.504 65.6758 240.516 65.5938 240.516C65.2305 240.516 65.0391 240.395 65.0391 239.961V237.5H65.8125V236.938H65.0391V235.84H64.3359V236.938H63.7422V237.5H64.3359V239.965C64.3359 240.742 64.7031 241.078 65.4492 241.078ZM68.3977 241.078C69.2844 241.078 69.9484 240.547 70.0812 239.875L70.0891 239.836H69.4211L69.4094 239.871C69.2922 240.219 68.9289 240.477 68.4133 240.477C67.6906 240.477 67.2297 239.988 67.2141 239.152H70.1398V238.902C70.1398 237.684 69.4641 236.859 68.3547 236.859C67.2453 236.859 66.5266 237.723 66.5266 238.98V238.984C66.5266 240.262 67.2297 241.078 68.3977 241.078ZM68.3508 237.461C68.9445 237.461 69.382 237.832 69.4484 238.621H67.2258C67.3 237.863 67.7609 237.461 68.3508 237.461ZM72.6547 241.078C73.2367 241.078 73.6898 240.785 73.9438 240.312H73.9594V241H74.6391V235.363H73.9594V237.617H73.9438C73.6898 237.148 73.2172 236.859 72.643 236.859C71.6234 236.859 70.9281 237.684 70.9281 238.965V238.969C70.9281 240.25 71.6156 241.078 72.6547 241.078ZM72.7875 240.477C72.0688 240.477 71.6234 239.902 71.6234 238.969V238.965C71.6234 238.039 72.0688 237.461 72.7875 237.461C73.4711 237.461 73.9633 238.059 73.9633 238.965V238.969C73.9633 239.879 73.475 240.477 72.7875 240.477ZM79.2391 241.078C80.1453 241.078 80.8172 240.578 80.8172 239.867V239.863C80.8172 239.285 80.5203 238.961 79.7 238.762L79.0555 238.605C78.6063 238.496 78.4227 238.305 78.4227 238.027V238.023C78.4227 237.664 78.7273 237.426 79.2195 237.426C79.7234 237.426 80.0242 237.688 80.0789 238.082L80.0828 238.109H80.7313L80.7273 238.059C80.6766 237.379 80.1102 236.859 79.2195 236.859C78.3406 236.859 77.7273 237.355 77.7273 238.055V238.059C77.7273 238.645 78.0984 239 78.8641 239.184L79.5086 239.34C79.9695 239.453 80.1219 239.617 80.1219 239.91V239.914C80.1219 240.281 79.7938 240.512 79.243 240.512C78.6883 240.512 78.3875 240.273 78.3055 239.867L78.2977 239.828H77.618L77.6219 239.863C77.7039 240.59 78.282 241.078 79.2391 241.078ZM81.8242 242.367H82.5039V240.32H82.5195C82.7734 240.789 83.2461 241.078 83.8203 241.078C84.8398 241.078 85.5352 240.254 85.5352 238.973V238.969C85.5352 237.688 84.8477 236.859 83.8086 236.859C83.2266 236.859 82.7734 237.152 82.5195 237.625H82.5039V236.938H81.8242V242.367ZM83.6758 240.477C82.9922 240.477 82.5 239.879 82.5 238.973V238.969C82.5 238.059 82.9883 237.461 83.6758 237.461C84.3945 237.461 84.8398 238.035 84.8398 238.969V238.973C84.8398 239.898 84.3945 240.477 83.6758 240.477ZM86.5578 241H87.2375V235.363H86.5578V241ZM88.8383 236.25C89.0766 236.25 89.2641 236.059 89.2641 235.824C89.2641 235.586 89.0766 235.398 88.8383 235.398C88.6039 235.398 88.4125 235.586 88.4125 235.824C88.4125 236.059 88.6039 236.25 88.8383 236.25ZM88.4984 241H89.1781V236.938H88.4984V241ZM91.7242 241.078C91.857 241.078 92.0016 241.062 92.0875 241.051V240.5C92.0289 240.504 91.9508 240.516 91.8688 240.516C91.5055 240.516 91.3141 240.395 91.3141 239.961V237.5H92.0875V236.938H91.3141V235.84H90.6109V236.938H90.0172V237.5H90.6109V239.965C90.6109 240.742 90.9781 241.078 91.7242 241.078Z" fill="#6B7280"/>
<path d="M138.816 233H139.996V228.336H141.629V227.363H137.188V228.336H138.816V233ZM143.484 233.086C144.749 233.086 145.558 232.273 145.558 230.906V230.898C145.558 229.543 144.734 228.727 143.48 228.727C142.23 228.727 141.409 229.551 141.409 230.898V230.906C141.409 232.27 142.21 233.086 143.484 233.086ZM143.488 232.191C142.925 232.191 142.57 231.727 142.57 230.906V230.898C142.57 230.09 142.929 229.621 143.48 229.621C144.034 229.621 144.398 230.09 144.398 230.898V230.906C144.398 231.723 144.042 232.191 143.488 232.191ZM147.998 233.086C148.604 233.086 149.065 232.781 149.288 232.285H149.311V233H150.452V227.363H149.311V229.539H149.288C149.061 229.031 148.592 228.727 147.998 228.727C146.944 228.727 146.295 229.539 146.295 230.902V230.906C146.295 232.266 146.944 233.086 147.998 233.086ZM148.381 232.141C147.811 232.141 147.455 231.668 147.455 230.906V230.902C147.455 230.137 147.815 229.672 148.381 229.672C148.932 229.672 149.315 230.148 149.315 230.902V230.906C149.315 231.664 148.936 232.141 148.381 232.141ZM152.759 233.066C153.31 233.066 153.755 232.805 153.994 232.375H154.017V233H155.158V230.129C155.158 229.285 154.459 228.727 153.377 228.727C152.271 228.727 151.607 229.281 151.545 230.055L151.541 230.102H152.584L152.591 230.066C152.646 229.797 152.904 229.598 153.33 229.598C153.775 229.598 154.017 229.828 154.017 230.199V230.457L152.982 230.52C151.943 230.586 151.353 231.031 151.353 231.793V231.801C151.353 232.539 151.92 233.066 152.759 233.066ZM152.482 231.742V231.734C152.482 231.438 152.712 231.25 153.154 231.223L154.017 231.168V231.469C154.017 231.906 153.642 232.234 153.13 232.234C152.736 232.234 152.482 232.051 152.482 231.742ZM156.829 234.379C157.759 234.379 158.321 234.062 158.649 233.074L160.087 228.812H158.884L157.997 232.086H157.966L157.083 228.812H155.829L157.309 233L157.259 233.137C157.157 233.422 156.97 233.52 156.63 233.52C156.462 233.52 156.329 233.496 156.247 233.48V234.328C156.38 234.352 156.606 234.379 156.829 234.379Z" fill="#2FA2B9"/>
<g filter="url(#filter2_d_1_1241)">
<rect x="162" y="127" width="160" height="97.6744" rx="11.1628" fill="white"/>
</g>
<path d="M176.205 148.163H177.577V142.74H179.475V141.609H174.311V142.74H176.205V148.163ZM180.431 148.163H181.758V145.374C181.758 144.738 182.135 144.293 182.721 144.293C183.325 144.293 183.661 144.697 183.661 145.379V148.163H184.987V145.106C184.987 143.93 184.333 143.194 183.279 143.194C182.548 143.194 182.035 143.53 181.785 144.134H181.758V141.609H180.431V148.163ZM186.81 142.667C187.21 142.667 187.519 142.353 187.519 141.976C187.519 141.599 187.21 141.286 186.81 141.286C186.411 141.286 186.102 141.599 186.102 141.976C186.102 142.353 186.411 142.667 186.81 142.667ZM186.147 148.163H187.474V143.294H186.147V148.163ZM190.646 148.263C191.9 148.263 192.776 147.636 192.776 146.682V146.678C192.776 145.96 192.358 145.56 191.341 145.347L190.514 145.17C190.024 145.065 189.856 144.902 189.856 144.652V144.647C189.856 144.334 190.142 144.129 190.601 144.129C191.091 144.129 191.377 144.393 191.423 144.743L191.427 144.779H192.649V144.734C192.617 143.88 191.895 143.194 190.601 143.194C189.361 143.194 188.561 143.793 188.561 144.72V144.724C188.561 145.451 189.038 145.924 189.983 146.123L190.81 146.296C191.287 146.4 191.45 146.55 191.45 146.809V146.814C191.45 147.127 191.146 147.323 190.646 147.323C190.115 147.323 189.828 147.1 189.742 146.718L189.733 146.678H188.439L188.443 146.718C188.548 147.64 189.297 148.263 190.646 148.263ZM195.833 148.163H197.159V145.224C197.159 144.674 197.5 144.293 198.004 144.293C198.494 144.293 198.79 144.602 198.79 145.124V148.163H200.066V145.201C200.066 144.661 200.398 144.293 200.902 144.293C201.415 144.293 201.697 144.602 201.697 145.165V148.163H203.023V144.833C203.023 143.852 202.382 143.194 201.429 143.194C200.715 143.194 200.134 143.584 199.916 144.198H199.889C199.725 143.557 199.23 143.194 198.549 143.194C197.895 143.194 197.386 143.557 197.186 144.111H197.159V143.294H195.833V148.163ZM206.377 148.263C207.849 148.263 208.789 147.318 208.789 145.728V145.719C208.789 144.143 207.83 143.194 206.372 143.194C204.919 143.194 203.965 144.152 203.965 145.719V145.728C203.965 147.313 204.896 148.263 206.377 148.263ZM206.382 147.223C205.727 147.223 205.314 146.682 205.314 145.728V145.719C205.314 144.779 205.732 144.234 206.372 144.234C207.017 144.234 207.44 144.779 207.44 145.719V145.728C207.44 146.678 207.027 147.223 206.382 147.223ZM209.754 148.163H211.08V145.365C211.08 144.729 211.457 144.293 212.052 144.293C212.647 144.293 212.947 144.656 212.947 145.292V148.163H214.273V145.02C214.273 143.88 213.665 143.194 212.593 143.194C211.857 143.194 211.357 143.534 211.107 144.093H211.08V143.294H209.754V148.163ZM217.328 148.263C217.605 148.263 217.818 148.236 217.968 148.213V147.241C217.886 147.25 217.8 147.263 217.682 147.263C217.282 147.263 217.078 147.109 217.078 146.655V144.293H217.968V143.294H217.078V142.104H215.738V143.294H215.061V144.293H215.738V146.8C215.738 147.845 216.247 148.263 217.328 148.263ZM219.01 148.163H220.336V145.374C220.336 144.738 220.713 144.293 221.299 144.293C221.904 144.293 222.24 144.697 222.24 145.379V148.163H223.566V145.106C223.566 143.93 222.912 143.194 221.858 143.194C221.127 143.194 220.614 143.53 220.364 144.134H220.336V141.609H219.01V148.163Z" fill="#111827"/>
<line x1="174.558" y1="157.698" x2="174.558" y2="213.512" stroke="#F3F4F6" stroke-width="0.930233"/>
<line x1="174.093" y1="213.047" x2="312.698" y2="213.047" stroke="#F3F4F6" stroke-width="0.930233"/>
<line x1="174.093" y1="190.721" x2="312.698" y2="190.721" stroke="#F3F4F6" stroke-width="0.930233"/>
<line x1="174.093" y1="168.395" x2="312.698" y2="168.395" stroke="#F3F4F6" stroke-width="0.930233"/>
<path d="M175.023 212.116C186.186 208.861 198.186 187.465 208.977 187.465C222.465 187.465 231.302 203.744 244.326 203.744C259.674 203.744 264.791 164.674 280.14 164.674C294.558 164.674 301.07 180.488 311.768 180.488" stroke="#2FA2B9" stroke-width="1.39535" stroke-linecap="round"/>
<rect x="191.767" y="165.14" width="36.2791" height="14.8837" rx="3.72093" fill="#111827"/>
<path d="M198.274 174.19H198.501V173.811C199.159 173.774 199.625 173.436 199.625 172.861V172.857C199.625 172.364 199.311 172.105 198.68 171.971L198.501 171.935V171.147C198.771 171.178 198.937 171.315 198.971 171.54L198.975 171.56H199.582L199.577 171.521C199.532 170.997 199.13 170.674 198.501 170.636V170.254H198.274V170.633C197.626 170.665 197.188 171.022 197.188 171.553V171.558C197.188 172.039 197.497 172.321 198.103 172.448L198.274 172.484V173.297C197.944 173.268 197.79 173.118 197.751 172.909L197.747 172.884H197.14L197.143 172.918C197.179 173.454 197.622 173.777 198.274 173.811V174.19ZM197.822 171.508V171.503C197.822 171.322 197.974 171.172 198.274 171.144V171.887C197.947 171.814 197.822 171.692 197.822 171.508ZM198.991 172.92V172.925C198.991 173.129 198.841 173.277 198.501 173.302V172.532C198.878 172.614 198.991 172.725 198.991 172.92ZM200.406 173.861H202.788V173.316H201.303V173.288L201.989 172.661C202.554 172.141 202.743 171.882 202.743 171.485V171.48C202.743 170.922 202.266 170.527 201.573 170.527C200.88 170.527 200.367 170.96 200.367 171.578V171.596H201.003L201.005 171.576C201.014 171.281 201.242 171.06 201.578 171.06C201.868 171.06 202.073 171.251 202.075 171.519V171.524C202.075 171.751 201.987 171.912 201.564 172.307L200.406 173.39V173.861ZM203.349 174.544H203.808L204.141 173.288H203.515L203.349 174.544ZM206.119 173.917C206.951 173.917 207.455 173.266 207.455 172.223V172.219C207.455 171.176 206.951 170.527 206.119 170.527C205.288 170.527 204.784 171.176 204.784 172.219V172.223C204.784 173.266 205.288 173.917 206.119 173.917ZM206.119 173.368C205.711 173.368 205.477 172.943 205.477 172.223V172.219C205.477 171.499 205.711 171.076 206.119 171.076C206.528 171.076 206.762 171.499 206.762 172.219V172.223C206.762 172.943 206.528 173.368 206.119 173.368ZM209.451 173.917C210.282 173.917 210.786 173.266 210.786 172.223V172.219C210.786 171.176 210.282 170.527 209.451 170.527C208.619 170.527 208.115 171.176 208.115 172.219V172.223C208.115 173.266 208.619 173.917 209.451 173.917ZM209.451 173.368C209.042 173.368 208.808 172.943 208.808 172.223V172.219C208.808 171.499 209.042 171.076 209.451 171.076C209.86 171.076 210.093 171.499 210.093 172.219V172.223C210.093 172.943 209.86 173.368 209.451 173.368ZM212.782 173.917C213.613 173.917 214.117 173.266 214.117 172.223V172.219C214.117 171.176 213.613 170.527 212.782 170.527C211.951 170.527 211.447 171.176 211.447 172.219V172.223C211.447 173.266 211.951 173.917 212.782 173.917ZM212.782 173.368C212.373 173.368 212.139 172.943 212.139 172.223V172.219C212.139 171.499 212.373 171.076 212.782 171.076C213.191 171.076 213.425 171.499 213.425 172.219V172.223C213.425 172.943 213.191 173.368 212.782 173.368ZM215.035 173.899C215.239 173.899 215.403 173.736 215.403 173.531C215.403 173.325 215.239 173.163 215.035 173.163C214.828 173.163 214.667 173.325 214.667 173.531C214.667 173.736 214.828 173.899 215.035 173.899ZM217.333 173.917C218.164 173.917 218.668 173.266 218.668 172.223V172.219C218.668 171.176 218.164 170.527 217.333 170.527C216.502 170.527 215.997 171.176 215.997 172.219V172.223C215.997 173.266 216.502 173.917 217.333 173.917ZM217.333 173.368C216.924 173.368 216.69 172.943 216.69 172.223V172.219C216.69 171.499 216.924 171.076 217.333 171.076C217.742 171.076 217.976 171.499 217.976 172.219V172.223C217.976 172.943 217.742 173.368 217.333 173.368ZM220.664 173.917C221.495 173.917 222 173.266 222 172.223V172.219C222 171.176 221.495 170.527 220.664 170.527C219.833 170.527 219.329 171.176 219.329 172.219V172.223C219.329 173.266 219.833 173.917 220.664 173.917ZM220.664 173.368C220.255 173.368 220.021 172.943 220.021 172.223V172.219C220.021 171.499 220.255 171.076 220.664 171.076C221.073 171.076 221.307 171.499 221.307 172.219V172.223C221.307 172.943 221.073 173.368 220.664 173.368Z" fill="white"/>
<circle cx="209.442" cy="187.465" r="2.32558" fill="white" stroke="#2FA2B9" stroke-width="0.930233"/>
<defs>
<filter id="filter0_d_1_1241" x="15.8121" y="0.829651" width="98.1583" height="98.1583" filterUnits="userSpaceOnUse" color-interpolation-filters="sRGB">
<feFlood flood-opacity="0" result="BackgroundImageFix"/>
<feColorMatrix in="SourceAlpha" type="matrix" values="0 0 0 0 0 0 0 0 0 0 0 0 0 0 0 0 0 0 127 0" result="hardAlpha"/>
<feOffset dx="-5" dy="10"/>
<feGaussianBlur stdDeviation="12.5"/>
<feComposite in2="hardAlpha" operator="out"/>
<feColorMatrix type="matrix" values="0 0 0 0 0.611765 0 0 0 0 0.639216 0 0 0 0 0.686275 0 0 0 0.16 0"/>
<feBlend mode="normal" in2="BackgroundImageFix" result="effect1_dropShadow_1_1241"/>
<feBlend mode="normal" in="SourceGraphic" in2="effect1_dropShadow_1_1241" result="shape"/>
</filter>
<filter id="filter1_d_1_1241" x="0" y="189" width="192" height="101" filterUnits="userSpaceOnUse" color-interpolation-filters="sRGB">
<feFlood flood-opacity="0" result="BackgroundImageFix"/>
<feColorMatrix in="SourceAlpha" type="matrix" values="0 0 0 0 0 0 0 0 0 0 0 0 0 0 0 0 0 0 127 0" result="hardAlpha"/>
<feOffset dx="-5" dy="10"/>
<feGaussianBlur stdDeviation="12.5"/>
<feComposite in2="hardAlpha" operator="out"/>
<feColorMatrix type="matrix" values="0 0 0 0 0.611765 0 0 0 0 0.639216 0 0 0 0 0.686275 0 0 0 0.08 0"/>
<feBlend mode="normal" in2="BackgroundImageFix" result="effect1_dropShadow_1_1241"/>
<feBlend mode="normal" in="SourceGraphic" in2="effect1_dropShadow_1_1241" result="shape"/>
</filter>
<filter id="filter2_d_1_1241" x="122" y="117" width="210" height="147.674" filterUnits="userSpaceOnUse" color-interpolation-filters="sRGB">
<feFlood flood-opacity="0" result="BackgroundImageFix"/>
<feColorMatrix in="SourceAlpha" type="matrix" values="0 0 0 0 0 0 0 0 0 0 0 0 0 0 0 0 0 0 127 0" result="hardAlpha"/>
<feOffset dx="-15" dy="15"/>
<feGaussianBlur stdDeviation="12.5"/>
<feComposite in2="hardAlpha" operator="out"/>
<feColorMatrix type="matrix" values="0 0 0 0 0.419608 0 0 0 0 0.447059 0 0 0 0 0.501961 0 0 0 0.06 0"/>
<feBlend mode="normal" in2="BackgroundImageFix" result="effect1_dropShadow_1_1241"/>
<feBlend mode="normal" in="SourceGraphic" in2="effect1_dropShadow_1_1241" result="shape"/>
</filter>
</defs>
</svg>
