<svg width="91" height="77" viewBox="0 0 91 77" fill="none" xmlns="http://www.w3.org/2000/svg">
<circle cx="36" cy="41" r="36" fill="#F9FAFB"/>
<circle cx="1" cy="70" r="1" fill="#86EFAC"/>
<circle cx="69" cy="76" r="1" fill="#FDE047"/>
<circle cx="13" cy="6" r="1" fill="#E5E7EB"/>
<path opacity="0.8" fill-rule="evenodd" clip-rule="evenodd" d="M31.6 40.219V33.3C31.6 31.2579 32.4113 29.2993 33.8553 27.8553C35.2993 26.4113 37.2579 25.6 39.3 25.6C41.3422 25.6 43.3007 26.4113 44.7448 27.8553C46.1888 29.2993 47 31.2579 47 33.3V40.219C50.1812 41.165 52.5 44.113 52.5 47.6V54.2C52.5 56.2422 51.6888 58.2007 50.2448 59.6448C48.8007 61.0888 46.8422 61.9 44.8 61.9H33.8C31.7579 61.9 29.7993 61.0888 28.3553 59.6448C26.9113 58.2007 26.1 56.2422 26.1 54.2V47.6C26.1003 45.9417 26.6357 44.3277 27.6266 42.9979C28.6175 41.6681 30.011 40.6935 31.6 40.219ZM34.9 39.9V33.3C34.9 32.1331 35.3636 31.0139 36.1888 30.1888C37.0139 29.3636 38.1331 28.9 39.3 28.9C40.467 28.9 41.5861 29.3636 42.4113 30.1888C43.2365 31.0139 43.7 32.1331 43.7 33.3V39.9H34.9Z" fill="#97EDFF"/>
<path fill-rule="evenodd" clip-rule="evenodd" d="M30.5 46.5C30.5 47.667 30.9636 48.7861 31.7887 49.6113C32.6139 50.4365 33.733 50.9 34.9 50.9C36.067 50.9 37.1861 50.4365 38.0113 49.6113C38.8364 48.7861 39.3 47.667 39.3 46.5C39.3 45.3331 38.8364 44.2139 38.0113 43.3888C37.1861 42.5636 36.067 42.1 34.9 42.1C33.733 42.1 32.6139 42.5636 31.7887 43.3888C30.9636 44.2139 30.5 45.3331 30.5 46.5ZM37.1 46.5C37.1 47.0835 36.8682 47.6431 36.4556 48.0557C36.0431 48.4683 35.4835 48.7 34.9 48.7C34.3165 48.7 33.7569 48.4683 33.3444 48.0557C32.9318 47.6431 32.7 47.0835 32.7 46.5C32.7 45.9166 32.9318 45.357 33.3444 44.9444C33.7569 44.5318 34.3165 44.3 34.9 44.3C35.4835 44.3 36.0431 44.5318 36.4556 44.9444C36.8682 45.357 37.1 45.9166 37.1 46.5Z" fill="#0A6375"/>
<path fill-rule="evenodd" clip-rule="evenodd" d="M40.4 35.5H29.4C27.3578 35.5 25.3993 36.3112 23.9553 37.7553C22.5113 39.1993 21.7 41.1578 21.7 43.2V49.8C21.7 51.8422 22.5113 53.8007 23.9553 55.2447C25.3993 56.6888 27.3578 57.5 29.4 57.5H40.4C42.4422 57.5 44.4007 56.6888 45.8447 55.2447C47.2888 53.8007 48.1 51.8422 48.1 49.8V43.2C48.1 41.1578 47.2888 39.1993 45.8447 37.7553C44.4007 36.3112 42.4422 35.5 40.4 35.5ZM23.9 43.2C23.9 41.7413 24.4795 40.3424 25.5109 39.3109C26.5424 38.2795 27.9413 37.7 29.4 37.7H40.4C41.8587 37.7 43.2576 38.2795 44.2891 39.3109C45.3205 40.3424 45.9 41.7413 45.9 43.2V49.8C45.9 51.2587 45.3205 52.6576 44.2891 53.6891C43.2576 54.7205 41.8587 55.3 40.4 55.3H29.4C27.9413 55.3 26.5424 54.7205 25.5109 53.6891C24.4795 52.6576 23.9 51.2587 23.9 49.8V43.2Z" fill="#0A6375"/>
<path d="M29.4 36.6C29.4 36.8918 29.2841 37.1715 29.0778 37.3778C28.8715 37.5841 28.5918 37.7 28.3 37.7C28.0083 37.7 27.7285 37.5841 27.5222 37.3778C27.3159 37.1715 27.2 36.8918 27.2 36.6V28.9C27.2 27.8888 27.3992 26.8876 27.7861 25.9534C28.1731 25.0191 28.7403 24.1703 29.4553 23.4553C30.1703 22.7403 31.0191 22.1731 31.9533 21.7861C32.8876 21.3992 33.8888 21.2 34.9 21.2C35.9112 21.2 36.9125 21.3992 37.8467 21.7861C38.7809 22.1731 39.6297 22.7403 40.3447 23.4553C41.0597 24.1703 41.6269 25.0191 42.0139 25.9534C42.4008 26.8876 42.6 27.8888 42.6 28.9V36.6C42.6 36.8918 42.4841 37.1715 42.2778 37.3778C42.0715 37.5841 41.7917 37.7 41.5 37.7C41.2083 37.7 40.9285 37.5841 40.7222 37.3778C40.5159 37.1715 40.4 36.8918 40.4 36.6V28.9C40.4 27.4413 39.8205 26.0424 38.7891 25.0109C37.7576 23.9795 36.3587 23.4 34.9 23.4C33.4413 23.4 32.0424 23.9795 31.0109 25.0109C29.9795 26.0424 29.4 27.4413 29.4 28.9V36.6Z" fill="#0A6375"/>
<path fill-rule="evenodd" clip-rule="evenodd" d="M79.9714 23.6338C82.0454 23.4633 84.1697 23.561 86.2281 23.6696C86.6712 23.6943 87.028 24.0383 86.993 24.4313C86.989 24.8298 86.6178 25.1317 86.2058 25.1123C84.211 25.0055 82.1516 24.904 80.174 25.0714C79.7522 25.1089 79.3546 24.816 79.2945 24.4185C79.2344 24.0213 79.5496 23.6716 79.9714 23.6338Z" fill="#FFF1EE"/>
<path fill-rule="evenodd" clip-rule="evenodd" d="M75.1771 15.3911C78.8828 12.9569 82.9269 10.975 86.5841 8.45029C86.9123 8.21222 87.4117 8.28154 87.6768 8.60113C87.9418 8.92101 87.8963 9.3752 87.5371 9.60799C83.8783 12.1414 79.8328 14.1319 76.1256 16.5748C75.7676 16.8008 75.2702 16.7202 75.0065 16.3929C74.7737 16.0713 74.8191 15.6171 75.1771 15.3911Z" fill="#FFF1EE"/>
<path fill-rule="evenodd" clip-rule="evenodd" d="M71.1358 2.9119C70.7522 4.60106 70.3688 6.29025 69.9851 7.9797C69.9186 8.37024 69.4944 8.60829 69.0629 8.51525C68.6315 8.42193 68.3778 8.03662 68.4444 7.64579C68.8285 5.95379 69.2123 4.26205 69.5964 2.57034C69.694 2.18508 70.1177 1.94899 70.5488 2.0443C70.9488 2.13432 71.2333 2.52693 71.1358 2.9119Z" fill="#FFF1EE"/>
<path fill-rule="evenodd" clip-rule="evenodd" d="M77.9487 22.6627C80.0391 22.4909 82.1803 22.5893 84.255 22.6988C84.7016 22.7237 85.0611 23.0704 85.0259 23.4665C85.0218 23.8682 84.6478 24.1725 84.2324 24.1529C82.2219 24.0453 80.1461 23.943 78.1529 24.1117C77.7278 24.1495 77.327 23.8543 77.2664 23.4536C77.2058 23.0532 77.5236 22.7008 77.9487 22.6627Z" fill="#FFB9AA"/>
<path fill-rule="evenodd" clip-rule="evenodd" d="M73.1165 14.3548C76.8516 11.9013 80.9277 9.90368 84.6139 7.35902C84.9446 7.11906 85.448 7.18894 85.7151 7.51106C85.9823 7.83346 85.9364 8.29126 85.5743 8.52589C81.8866 11.0794 77.8091 13.0856 74.0725 15.5479C73.7117 15.7757 73.2104 15.6944 72.9445 15.3646C72.7099 15.0403 72.7557 14.5825 73.1165 14.3548Z" fill="#FFB9AA"/>
<path fill-rule="evenodd" clip-rule="evenodd" d="M69.0432 1.77676C68.6565 3.4793 68.2701 5.18186 67.8834 6.88469C67.8163 7.27832 67.3888 7.51826 66.9539 7.42448C66.519 7.33041 66.2633 6.94205 66.3304 6.54813C66.7176 4.84274 67.1045 3.1376 67.4915 1.43249C67.5899 1.04419 68.017 0.80623 68.4515 0.902294C68.8547 0.993027 69.1415 1.38874 69.0432 1.77676Z" fill="#FFB9AA"/>
</svg>
