<svg width="72" height="72" viewBox="0 0 72 72" fill="none" xmlns="http://www.w3.org/2000/svg">
<path d="M32 2.3094C34.4752 0.880339 37.5248 0.880339 40 2.3094L63.1769 15.6906C65.6521 17.1197 67.1769 19.7607 67.1769 22.6188V49.3812C67.1769 52.2393 65.6521 54.8803 63.1769 56.3094L40 69.6906C37.5248 71.1197 34.4752 71.1197 32 69.6906L8.82308 56.3094C6.34788 54.8803 4.82309 52.2393 4.82309 49.3812V22.6188C4.82309 19.7607 6.34788 17.1197 8.82309 15.6906L32 2.3094Z" fill="#111827"/>
<path d="M43.1676 45.1146L26.3131 52.2164C24.5622 52.9528 23.0403 50.7764 24.3331 49.3855L37.1131 35.5091L43.7403 42.2509C44.624 43.1346 44.3295 44.64 43.1676 45.1146Z" fill="white"/>
<path d="M47.7331 22.5328L37.1131 35.5091L30.4859 28.8C29.6022 27.9 29.8967 26.3946 31.0586 25.92L45.6877 19.7837C47.3895 19.0637 48.9113 21.1091 47.7331 22.5328Z" fill="white"/>
</svg>
