<svg width="141" height="135" viewBox="0 0 141 135" fill="none" xmlns="http://www.w3.org/2000/svg" xmlns:xlink="http://www.w3.org/1999/xlink">
<rect x="0.275391" y="29.7257" width="106" height="106" transform="rotate(-9.30965 0.275391 29.7257)" fill="url(#pattern0)"/>
<path d="M21.5359 21.2656L21.8021 26.3444L26.7146 27.6607L21.9666 29.4833L22.2327 34.5621L19.0321 30.6097L14.2841 32.4323L17.0541 28.167L13.8535 24.2146L18.766 25.5309L21.5359 21.2656Z" fill="#FFB300"/>
<path d="M130.34 46.6924L133.11 50.9577L138.022 49.6414L134.821 53.5938L137.591 57.8591L132.843 56.0365L129.643 59.9889L129.909 54.9101L125.161 53.0875L130.073 51.7712L130.34 46.6924Z" fill="#FFB300"/>
<path d="M107.361 2.70916L108.687 13.1602L119.036 15.1285L109.507 19.6193L110.833 30.0704L103.617 22.3948L94.0872 26.8856L99.1573 17.651L91.9414 9.97542L102.291 11.9437L107.361 2.70916Z" fill="#FFB300"/>
<defs>
<pattern id="pattern0" patternContentUnits="objectBoundingBox" width="1" height="1">
<use xlink:href="#image0_19_2503" transform="scale(0.00195312)"/>
</pattern>
</defs>
</svg>
